<?xml version="1.0" encoding="UTF-8" standalone="no"?>
<svg xmlns="http://www.w3.org/2000/svg" width="800" height="450" viewBox="0 0 800 450">
  <rect width="800" height="450" fill="#1a1a2e" />
  <!-- Background grid -->
  <g stroke="#2a2a3a" stroke-width="0.5">
    <g id="grid">
      <line x1="0" y1="0" x2="800" y2="0" />
      <line x1="0" y1="25" x2="800" y2="25" />
      <line x1="0" y1="50" x2="800" y2="50" />
      <line x1="0" y1="75" x2="800" y2="75" />
      <line x1="0" y1="100" x2="800" y2="100" />
      <line x1="0" y1="125" x2="800" y2="125" />
      <line x1="0" y1="150" x2="800" y2="150" />
      <line x1="0" y1="175" x2="800" y2="175" />
      <line x1="0" y1="200" x2="800" y2="200" />
      <line x1="0" y1="225" x2="800" y2="225" />
      <line x1="0" y1="250" x2="800" y2="250" />
      <line x1="0" y1="275" x2="800" y2="275" />
      <line x1="0" y1="300" x2="800" y2="300" />
      <line x1="0" y1="325" x2="800" y2="325" />
      <line x1="0" y1="350" x2="800" y2="350" />
      <line x1="0" y1="375" x2="800" y2="375" />
      <line x1="0" y1="400" x2="800" y2="400" />
      <line x1="0" y1="425" x2="800" y2="425" />
      <line x1="0" y1="450" x2="800" y2="450" />
      <line x1="0" y1="0" x2="0" y2="450" />
      <line x1="25" y1="0" x2="25" y2="450" />
      <line x1="50" y1="0" x2="50" y2="450" />
      <line x1="75" y1="0" x2="75" y2="450" />
      <line x1="100" y1="0" x2="100" y2="450" />
      <line x1="125" y1="0" x2="125" y2="450" />
      <line x1="150" y1="0" x2="150" y2="450" />
      <line x1="175" y1="0" x2="175" y2="450" />
      <line x1="200" y1="0" x2="200" y2="450" />
      <line x1="225" y1="0" x2="225" y2="450" />
      <line x1="250" y1="0" x2="250" y2="450" />
      <line x1="275" y1="0" x2="275" y2="450" />
      <line x1="300" y1="0" x2="300" y2="450" />
      <line x1="325" y1="0" x2="325" y2="450" />
      <line x1="350" y1="0" x2="350" y2="450" />
      <line x1="375" y1="0" x2="375" y2="450" />
      <line x1="400" y1="0" x2="400" y2="450" />
      <line x1="425" y1="0" x2="425" y2="450" />
      <line x1="450" y1="0" x2="450" y2="450" />
      <line x1="475" y1="0" x2="475" y2="450" />
      <line x1="500" y1="0" x2="500" y2="450" />
      <line x1="525" y1="0" x2="525" y2="450" />
      <line x1="550" y1="0" x2="550" y2="450" />
      <line x1="575" y1="0" x2="575" y2="450" />
      <line x1="600" y1="0" x2="600" y2="450" />
      <line x1="625" y1="0" x2="625" y2="450" />
      <line x1="650" y1="0" x2="650" y2="450" />
      <line x1="675" y1="0" x2="675" y2="450" />
      <line x1="700" y1="0" x2="700" y2="450" />
      <line x1="725" y1="0" x2="725" y2="450" />
      <line x1="750" y1="0" x2="750" y2="450" />
      <line x1="775" y1="0" x2="775" y2="450" />
      <line x1="800" y1="0" x2="800" y2="450" />
    </g>
  </g>
  
  <!-- Central node (MQP.md) -->
  <circle cx="400" cy="225" r="25" fill="#ff4500" />
  <text x="400" y="225" text-anchor="middle" dominant-baseline="middle" fill="white" font-family="Arial" font-size="12">MQP.md</text>
  
  <!-- Connected nodes -->
  <!-- Core nodes in orange -->
  <circle cx="500" cy="175" r="20" fill="#ff4500" />
  <text x="500" y="175" text-anchor="middle" dominant-baseline="middle" fill="white" font-family="Arial" font-size="9">ROADMAP.md</text>
  
  <circle cx="320" cy="280" r="18" fill="#1E88E5" />
  <text x="320" y="280" text-anchor="middle" dominant-baseline="middle" fill="white" font-family="Arial" font-size="8">README.md</text>
  
  <circle cx="480" cy="280" r="15" fill="#1E88E5" />
  <text x="480" y="280" text-anchor="middle" dominant-baseline="middle" fill="white" font-family="Arial" font-size="7">CODE_OF_CONDUCT.md</text>
  
  <circle cx="300" cy="175" r="15" fill="#1E88E5" />
  <text x="300" y="175" text-anchor="middle" dominant-baseline="middle" fill="white" font-family="Arial" font-size="7">GOVERNANCE.md</text>
  
  <circle cx="600" cy="225" r="15" fill="#1E88E5" />
  <text x="600" y="225" text-anchor="middle" dominant-baseline="middle" fill="white" font-family="Arial" font-size="7">ARCHITECTURE.md</text>
  
  <circle cx="200" cy="225" r="15" fill="#1E88E5" />
  <text x="200" y="225" text-anchor="middle" dominant-baseline="middle" fill="white" font-family="Arial" font-size="7">cross_reference.md</text>
  
  <!-- More nodes at further distances -->
  <circle cx="550" cy="325" r="10" fill="#1E88E5" />
  <circle cx="250" cy="325" r="10" fill="#1E88E5" />
  <circle cx="550" cy="125" r="10" fill="#1E88E5" />
  <circle cx="250" cy="125" r="10" fill="#1E88E5" />
  <circle cx="650" cy="175" r="10" fill="#1E88E5" />
  <circle cx="150" cy="175" r="10" fill="#1E88E5" />
  <circle cx="650" cy="275" r="10" fill="#1E88E5" />
  <circle cx="150" cy="275" r="10" fill="#1E88E5" />
  
  <!-- Even more distant nodes -->
  <circle cx="500" cy="375" r="5" fill="#1E88E5" />
  <circle cx="300" cy="375" r="5" fill="#1E88E5" />
  <circle cx="500" cy="75" r="5" fill="#1E88E5" />
  <circle cx="300" cy="75" r="5" fill="#1E88E5" />
  <circle cx="700" cy="125" r="5" fill="#1E88E5" />
  <circle cx="100" cy="125" r="5" fill="#1E88E5" />
  <circle cx="700" cy="325" r="5" fill="#1E88E5" />
  <circle cx="100" cy="325" r="5" fill="#1E88E5" />
  <circle cx="750" cy="225" r="5" fill="#1E88E5" />
  <circle cx="50" cy="225" r="5" fill="#1E88E5" />
  <circle cx="675" cy="150" r="5" fill="#1E88E5" />
  <circle cx="125" cy="150" r="5" fill="#1E88E5" />
  <circle cx="675" cy="300" r="5" fill="#1E88E5" />
  <circle cx="125" cy="300" r="5" fill="#1E88E5" />
  
  <!-- Edges/Connections -->
  <!-- Main connections -->
  <line x1="400" y1="225" x2="500" y2="175" stroke="#ffffff" stroke-width="3" stroke-opacity="0.7" />
  <line x1="400" y1="225" x2="320" y2="280" stroke="#ffffff" stroke-width="2" stroke-opacity="0.6" />
  <line x1="400" y1="225" x2="480" y2="280" stroke="#ffffff" stroke-width="2" stroke-opacity="0.6" />
  <line x1="400" y1="225" x2="300" y2="175" stroke="#ffffff" stroke-width="2" stroke-opacity="0.6" />
  <line x1="400" y1="225" x2="600" y2="225" stroke="#ffffff" stroke-width="2" stroke-opacity="0.6" />
  <line x1="400" y1="225" x2="200" y2="225" stroke="#ffffff" stroke-width="2" stroke-opacity="0.6" />
  
  <!-- Secondary connections -->
  <line x1="500" y1="175" x2="600" y2="225" stroke="#ffffff" stroke-width="1" stroke-opacity="0.4" />
  <line x1="500" y1="175" x2="550" y2="125" stroke="#ffffff" stroke-width="1" stroke-opacity="0.4" />
  <line x1="500" y1="175" x2="650" y2="175" stroke="#ffffff" stroke-width="1" stroke-opacity="0.4" />
  <line x1="320" y1="280" x2="250" y2="325" stroke="#ffffff" stroke-width="1" stroke-opacity="0.4" />
  <line x1="320" y1="280" x2="480" y2="280" stroke="#ffffff" stroke-width="1" stroke-opacity="0.4" />
  <line x1="300" y1="175" x2="200" y2="225" stroke="#ffffff" stroke-width="1" stroke-opacity="0.4" />
  <line x1="300" y1="175" x2="250" y2="125" stroke="#ffffff" stroke-width="1" stroke-opacity="0.4" />
  
  <!-- Title -->
  <text x="400" y="30" text-anchor="middle" dominant-baseline="middle" fill="white" font-family="Arial" font-size="24" font-weight="bold">EGOS Cross-Reference Network</text>
</svg>
